<?xml version="1.0" encoding="utf-8"?>
<!-- Generator: Adobe Illustrator 18.1.1, SVG Export Plug-In . SVG Version: 6.00 Build 0)  -->
<svg version="1.1" id="Layer_1" xmlns="http://www.w3.org/2000/svg" xmlns:xlink="http://www.w3.org/1999/xlink" x="0px" y="0px"
	 viewBox="-23.5 -22.8 64 64" enable-background="new -23.5 -22.8 64 64" xml:space="preserve">
<g id="Delete">
	<polygon points="17,-6.4 8.5,2 0,-6.4 -7.2,0.8 1.3,9.3 -7.2,17.7 0,24.9 8.5,16.5 17,24.9 24.2,17.7 15.7,9.3 24.2,0.8 	"/>
	<path d="M31.1-13.4c-6.2-6.2-14.4-9.4-22.6-9.4s-16.4,3.1-22.6,9.4c-12.5,12.5-12.5,32.8,0,45.3c6.2,6.2,14.4,9.4,22.6,9.4
		s16.4-3.1,22.6-9.4C43.6,19.4,43.6-0.9,31.1-13.4z M27.6,28.3c-5.1,5.1-11.9,7.9-19.1,7.9s-14-2.8-19.1-7.9
		c-5.1-5.1-7.9-11.9-7.9-19.1c0-7.2,2.8-14,7.9-19.1c5.1-5.1,11.9-7.9,19.1-7.9s14,2.8,19.1,7.9h0C32.7-4.7,35.5,2,35.5,9.3
		C35.5,16.5,32.7,23.2,27.6,28.3z"/>
</g>
</svg>
