<?xml version="1.0" encoding="utf-8"?>
<!-- Generator: Adobe Illustrator 18.1.1, SVG Export Plug-In . SVG Version: 6.00 Build 0)  -->
<svg version="1.1" id="Layer_1" xmlns="http://www.w3.org/2000/svg" xmlns:xlink="http://www.w3.org/1999/xlink" x="0px" y="0px"
	 viewBox="-3.8 -21.8 67.2 61" enable-background="new -3.8 -21.8 67.2 61" xml:space="preserve">
<g id="Alert">
	<path fill="#FC0000" d="M61.9,28.9L35.7-16.5c-1.6-2.8-3.8-4.3-6-4.3s-4.3,1.4-6,4.3L-2.4,28.9c-3.3,5.7-0.6,10.3,6,10.3H56
		C62.5,39.3,65.2,34.6,61.9,28.9z M58.3,33.7c-0.1,0.1-0.7,0.5-2.3,0.5H3.5c-1.6,0-2.3-0.4-2.3-0.5c-0.1-0.1-0.1-0.9,0.7-2.3
		L28.1-14c0.8-1.4,1.5-1.7,1.6-1.8c0.1,0,0.8,0.4,1.6,1.8l26.2,45.4C58.4,32.8,58.4,33.6,58.3,33.7z"/>
	<circle fill="#FC0000" cx="29.8" cy="24.6" r="3.7"/>
	<rect x="26.3" y="2.1" fill="#FC0000" width="6.8" height="15.9"/>
</g>
</svg>
