<?xml version="1.0" encoding="utf-8"?>
<!-- Generator: Adobe Illustrator 18.1.1, SVG Export Plug-In . SVG Version: 6.00 Build 0)  -->
<svg version="1.1" id="Layer_1" xmlns="http://www.w3.org/2000/svg" xmlns:xlink="http://www.w3.org/1999/xlink" x="0px" y="0px"
	 viewBox="0 0 100 100" enable-background="new 0 0 100 100" xml:space="preserve">
<g id="Help">
	<path d="M83.1,17.2C73.8,7.9,61.7,3.3,49.5,3.3S25.2,7.9,15.9,17.2c-18.5,18.5-18.5,48.6,0,67.2c9.3,9.3,21.4,13.9,33.6,13.9
		s24.3-4.6,33.6-13.9C101.6,65.8,101.6,35.8,83.1,17.2z M77.8,79.1c-7.6,7.6-17.6,11.7-28.3,11.7s-20.8-4.2-28.3-11.7
		c-15.6-15.6-15.6-41.1,0-56.7c7.6-7.6,17.6-11.7,28.3-11.7c10.7,0,20.8,4.2,28.3,11.7C93.5,38.1,93.5,63.5,77.8,79.1z"/>
	<path d="M63.2,26.4c-3.3-2.2-7.7-3.4-13-3.4c-6.9,0-12.1,1.6-15.4,4.8c-3.2,3.1-5.1,7.1-5.7,12.1l13.5,1.7c0.4-2.8,1.2-4.8,2.4-6
		c1.3-1.3,3-2,4.9-2c1.8,0,3.3,0.4,4.2,1.3c1,0.9,1.4,2.2,1.4,3.7c0,1.6-1.1,3.3-3.3,5.1c-3.8,3.2-6.3,5.4-7.4,6.6
		c-1,1.2-1.8,2.5-2.4,4c-0.5,1.5-0.8,3.4-0.8,5.8V61h13.2c0.1-1.8,0.4-3.3,1.1-4.5c0.7-1.3,2.4-3,5-5.1c3.6-2.8,6-5.2,7.2-7.2
		c1.1-1.9,1.7-3.9,1.7-5.9C69.9,33.3,67.7,29.4,63.2,26.4z"/>
	<circle cx="48.8" cy="73.2" r="7.3"/>
</g>
</svg>
